<svg id="MENU-M" xmlns="http://www.w3.org/2000/svg" width="104.894" height="26.444">
    <defs>
        <style>
            .cls-1{fill:#fff}
        </style>
    </defs>
    <g id="그룹_2298" data-name="그룹 2298">
        <path id="패스_3534" data-name="패스 3534" class="cls-1" d="M1401.331 1588.7h-2.893c-.35-.008-.656-.011-.869 0l-5.77 10.161 1.173 2.045a.823.823 0 0 0 1.43 0l5.107-8.993z" transform="translate(-1377.757 -1581.461)"/>
        <path id="패스_3535" data-name="패스 3535" class="cls-1" d="m1343.457 1571.588-.139.192a9.877 9.877 0 0 1-17.13-9.578l5.694 10.026a.823.823 0 0 0 1.43 0l4.269-7.423.542-.942-.825-2.465a.823.823 0 0 0-1.5-.147l-3.2 5.606-4.388-7.727a9.853 9.853 0 0 1 12.251-1.542 10.314 10.314 0 0 1 1.068.756c.19.15.376.306.556.47h3.742c-.776-2.468-3.248-4.1-5.528-5.039a13.19 13.19 0 0 0-2.811-.808 13.008 13.008 0 0 0-2.183-.185 13.222 13.222 0 1 0 11.642 19.485l.369-.683z" transform="translate(-1322.082 -1552.786)"/>
    </g>
    <path id="패스_3536" data-name="패스 3536" class="cls-1" d="M1468.045 1574.331a2.889 2.889 0 0 1-1.212.668 3.886 3.886 0 0 1-2.157.054 1.75 1.75 0 0 1-.658-.39 1.959 1.959 0 0 1-.465-.715 3.03 3.03 0 0 1-.179-1.109v-.9a3.516 3.516 0 0 1 .193-1.268 2.008 2.008 0 0 1 .483-.749 1.542 1.542 0 0 1 .654-.363 4.163 4.163 0 0 1 2 .026 3.078 3.078 0 0 1 1.106.547l.205.152 1.24-1.553-.181-.127a5.263 5.263 0 0 0-1.648-.793 7.43 7.43 0 0 0-1.929-.229 6.081 6.081 0 0 0-1.7.23 3.908 3.908 0 0 0-1.409.736 3.5 3.5 0 0 0-.95 1.259 4.281 4.281 0 0 0-.342 1.78v1.571a4.092 4.092 0 0 0 .35 1.765 3.469 3.469 0 0 0 .951 1.22 3.852 3.852 0 0 0 1.389.7 6.032 6.032 0 0 0 1.627.217c.283 0 .587-.013.9-.037a5.622 5.622 0 0 0 1-.173 6.3 6.3 0 0 0 1.016-.369 4.073 4.073 0 0 0 .992-.654l.145-.128-1.225-1.558z" transform="translate(-1433.102 -1564.601)"/>
    <path id="패스_3537" data-name="패스 3537" class="cls-1" d="M1520.606 1568.521a4.059 4.059 0 0 0-1.435-.715 6.475 6.475 0 0 0-3.363 0 4.061 4.061 0 0 0-1.435.715 3.439 3.439 0 0 0-.981 1.254 4.281 4.281 0 0 0-.357 1.825v1.449a4.354 4.354 0 0 0 .356 1.842 3.4 3.4 0 0 0 .974 1.254 3.962 3.962 0 0 0 1.43.7 6.732 6.732 0 0 0 3.388 0 3.967 3.967 0 0 0 1.43-.7 3.406 3.406 0 0 0 .975-1.254 4.352 4.352 0 0 0 .357-1.842v-1.449a4.279 4.279 0 0 0-.357-1.825 3.447 3.447 0 0 0-.982-1.254zm-3.986 6.579a1.6 1.6 0 0 1-.669-.353 1.79 1.79 0 0 1-.466-.708 3.331 3.331 0 0 1-.18-1.184v-1.06a3.33 3.33 0 0 1 .18-1.184 1.792 1.792 0 0 1 .466-.708 1.6 1.6 0 0 1 .669-.353 3.427 3.427 0 0 1 .869-.107 3.489 3.489 0 0 1 .883.107 1.629 1.629 0 0 1 .669.353 1.732 1.732 0 0 1 .458.706 3.454 3.454 0 0 1 .174 1.186v1.06a3.454 3.454 0 0 1-.174 1.186 1.733 1.733 0 0 1-.458.706 1.6 1.6 0 0 1-.669.354 3.652 3.652 0 0 1-1.752-.001z" transform="translate(-1474.574 -1564.604)"/>
    <path id="패스_3538" data-name="패스 3538" class="cls-1" d="M1520.606 1623.152a4.059 4.059 0 0 0-1.435-.715 6.478 6.478 0 0 0-3.363 0 4.06 4.06 0 0 0-1.435.715 3.436 3.436 0 0 0-.981 1.254 4.282 4.282 0 0 0-.357 1.825v1.449a4.354 4.354 0 0 0 .356 1.842 3.4 3.4 0 0 0 .974 1.254 3.966 3.966 0 0 0 1.43.7 6.732 6.732 0 0 0 3.388 0 3.971 3.971 0 0 0 1.43-.7 3.406 3.406 0 0 0 .975-1.254 4.352 4.352 0 0 0 .357-1.842v-1.449a4.28 4.28 0 0 0-.357-1.825 3.445 3.445 0 0 0-.982-1.254zm-3.986 6.578a1.6 1.6 0 0 1-.669-.353 1.791 1.791 0 0 1-.466-.708 3.33 3.33 0 0 1-.18-1.184v-1.059a3.331 3.331 0 0 1 .18-1.184 1.794 1.794 0 0 1 .466-.708 1.6 1.6 0 0 1 .669-.353 3.416 3.416 0 0 1 .869-.107 3.478 3.478 0 0 1 .883.107 1.624 1.624 0 0 1 .669.353 1.731 1.731 0 0 1 .458.706 3.454 3.454 0 0 1 .174 1.186v1.059a3.454 3.454 0 0 1-.174 1.187 1.733 1.733 0 0 1-.458.706 1.6 1.6 0 0 1-.669.354 3.651 3.651 0 0 1-1.752-.001z" transform="translate(-1474.574 -1608.231)"/>
    <path id="패스_3539" data-name="패스 3539" class="cls-1" d="M1571.038 1629.878q-.429-.85-.875-1.715a2.589 2.589 0 0 0 1.046-.847 2.336 2.336 0 0 0 .423-1.362v-.45a2.408 2.408 0 0 0-.234-1.053 2.349 2.349 0 0 0-.684-.839 3.363 3.363 0 0 0-1.09-.542 5.007 5.007 0 0 0-1.453-.195h-4.014v9.214h2.258v-3.519h1.619l1.67 3.519h2.464l-.159-.307q-.495-.961-.971-1.904zm-4.623-5.266h1.534a1.814 1.814 0 0 1 1.128.263.833.833 0 0 1 .31.677v.366a.783.783 0 0 1-.324.653 2.218 2.218 0 0 1-1.266.262h-1.383z" transform="translate(-1515.4 -1608.758)"/>
    <path id="패스_3540" data-name="패스 3540" class="cls-1" d="M1658.63 1628.229h4.361v-1.7h-4.361v-1.929h4.651v-1.725h-6.9v9.214h6.992v-1.725h-4.748z" transform="translate(-1589.053 -1608.759)"/>
    <path id="패스_3541" data-name="패스 3541" class="cls-1" d="M1706.585 1631.782q-.5-.961-.972-1.9-.429-.85-.875-1.715a2.587 2.587 0 0 0 1.046-.847 2.335 2.335 0 0 0 .423-1.362v-.45a2.408 2.408 0 0 0-.234-1.053 2.35 2.35 0 0 0-.684-.839 3.361 3.361 0 0 0-1.09-.542 5.005 5.005 0 0 0-1.453-.195h-4.014v9.214h2.258v-3.519h1.619l1.67 3.519h2.464zm-5.595-7.17h1.534a1.813 1.813 0 0 1 1.128.263.832.832 0 0 1 .31.677v.366a.783.783 0 0 1-.324.653 2.218 2.218 0 0 1-1.266.262h-1.382z" transform="translate(-1622.871 -1608.758)"/>
    <path id="패스_3542" data-name="패스 3542" class="cls-1" d="m1614.506 1626.977 4.079-4.1h-2.7l-3.561 3.651v-3.651h-2.259v9.214h2.259v-3.019l.653-.628 2.906 3.647h2.847z" transform="translate(-1552.063 -1608.759)"/>
    <g id="그룹_2299" data-name="그룹 2299" transform="translate(25.436 14.988)">
        <path id="패스_3543" data-name="패스 3543" class="cls-1" d="M1490.682 1627.209h-1.829c-.221 0-.415-.007-.549 0l-3.861 6.782.741 1.293a.521.521 0 0 0 .9 0l3.229-5.686z" transform="translate(-1477.177 -1627.204)"/>
        <path id="패스_3544" data-name="패스 3544" class="cls-1" d="M1452.954 1635.283a.52.52 0 0 0 .9 0l2.7-4.693.342-.6-.522-1.559a.521.521 0 0 0-.946-.093l-2.026 3.544-2.656-4.685h-2.379z" transform="translate(-1448.371 -1627.204)"/>
    </g>
    <g id="그룹_2300" data-name="그룹 2300" transform="translate(84.873 16.588)">
        <path id="패스_3545" data-name="패스 3545" class="cls-1" d="M1743.472 1635.144h1.658l.426 3.073.272 2.139h.036c.127-.716.263-1.441.4-2.139l.689-3.073h1.359l.707 3.073c.136.689.254 1.414.39 2.139h.045c.082-.725.172-1.441.254-2.139l.435-3.073h1.541l-1.169 6.743h-2.039l-.607-2.936a19.21 19.21 0 0 1-.263-1.568h-.045c-.082.508-.163 1.051-.263 1.568l-.589 2.936h-2z" transform="translate(-1743.472 -1635.144)"/>
        <path id="패스_3546" data-name="패스 3546" class="cls-1" d="M1788.786 1635.144h4.278v1.342h-2.656v1.25h2.257v1.359h-2.257v1.432h2.755v1.359h-4.377z" transform="translate(-1779.659 -1635.144)"/>
        <path id="패스_3547" data-name="패스 3547" class="cls-1" d="M1817.136 1635.144h2.356c1.4 0 2.51.372 2.51 1.668a1.574 1.574 0 0 1-.879 1.459v.036a1.53 1.53 0 0 1 1.2 1.586c0 1.378-1.169 1.994-2.638 1.994h-2.547zm2.293 2.674c.689 0 1-.3 1-.761 0-.48-.317-.68-1-.68h-.671v1.441zm.136 2.828c.78 0 1.178-.281 1.178-.861 0-.553-.39-.77-1.178-.77h-.807v1.632z" transform="translate(-1802.299 -1635.144)"/>
    </g>
</svg>
