<svg id="LOGO" xmlns="http://www.w3.org/2000/svg" width="150" height="61.837">
    <defs>
        <style>
            .cls-1{fill:#fff}
        </style>
    </defs>
    <g id="그룹_2286" data-name="그룹 2286">
        <path id="패스_3506" data-name="패스 3506" class="cls-1" d="M2312.119 1572.212h-6.765c-.819-.019-1.535-.027-2.033 0l-13.492 23.759 2.742 4.783a1.925 1.925 0 0 0 3.344-.007l11.942-21.028z" transform="translate(-2256.994 -1555.283)"/>
        <path id="패스_3507" data-name="패스 3507" class="cls-1" d="m2227.508 1558.32-.324.449a23.1 23.1 0 0 1-40.056-22.4l13.314 23.445a1.925 1.925 0 0 0 3.343.009l9.983-17.358 1.267-2.2-1.93-5.763a1.925 1.925 0 0 0-3.5-.344l-7.493 13.109-10.261-18.068a23.039 23.039 0 0 1 28.648-3.606c.651.388 1.284.849 1.9 1.3.2.153.4.306.6.464.444.351.88.715 1.3 1.1h8.751c-1.815-5.772-7.6-9.586-12.926-11.784a30.82 30.82 0 0 0-6.572-1.89 30.413 30.413 0 0 0-5.105-.432 30.919 30.919 0 1 0 27.222 45.565l.863-1.6z" transform="translate(-2177.525 -1514.353)"/>
    </g>
    <g id="그룹_2289" data-name="그룹 2289" transform="translate(60.381 7.451)">
        <path id="패스_3508" data-name="패스 3508" class="cls-1" d="M2408.938 1550.07a4.38 4.38 0 0 1-1.837 1.012 5.879 5.879 0 0 1-3.268.081 2.642 2.642 0 0 1-1-.59 2.962 2.962 0 0 1-.7-1.083 4.583 4.583 0 0 1-.272-1.681v-1.366a5.327 5.327 0 0 1 .293-1.922 3.038 3.038 0 0 1 .732-1.135 2.338 2.338 0 0 1 .991-.55 6.3 6.3 0 0 1 3.036.04 4.661 4.661 0 0 1 1.676.829l.311.23 1.879-2.354-.273-.193a7.964 7.964 0 0 0-2.5-1.2 11.235 11.235 0 0 0-2.922-.347 9.218 9.218 0 0 0-2.574.349 5.914 5.914 0 0 0-2.135 1.115 5.293 5.293 0 0 0-1.439 1.908 6.483 6.483 0 0 0-.519 2.7v2.381a6.2 6.2 0 0 0 .531 2.675 5.26 5.26 0 0 0 1.441 1.85 5.835 5.835 0 0 0 2.1 1.067 9.135 9.135 0 0 0 2.465.329c.429 0 .89-.019 1.372-.057a8.533 8.533 0 0 0 1.517-.262 9.549 9.549 0 0 0 1.54-.559 6.183 6.183 0 0 0 1.5-.991l.22-.194-1.857-2.361z" transform="translate(-2394.213 -1539.839)"/>
        <path id="패스_3509" data-name="패스 3509" class="cls-1" d="M2464.107 1541.264a6.154 6.154 0 0 0-2.176-1.083 9.817 9.817 0 0 0-5.1 0 6.155 6.155 0 0 0-2.176 1.083 5.208 5.208 0 0 0-1.487 1.9 6.481 6.481 0 0 0-.541 2.765v2.2a6.6 6.6 0 0 0 .541 2.792 5.15 5.15 0 0 0 1.477 1.9 6.011 6.011 0 0 0 2.168 1.066 10.2 10.2 0 0 0 5.134 0 6.016 6.016 0 0 0 2.167-1.066 5.159 5.159 0 0 0 1.477-1.9 6.6 6.6 0 0 0 .541-2.792v-2.2a6.485 6.485 0 0 0-.541-2.765 5.216 5.216 0 0 0-1.484-1.9zm-6.041 9.97a2.429 2.429 0 0 1-1.014-.536 2.715 2.715 0 0 1-.706-1.073 5.051 5.051 0 0 1-.273-1.795v-1.605a5.053 5.053 0 0 1 .273-1.795 2.719 2.719 0 0 1 .706-1.073 2.423 2.423 0 0 1 1.014-.535 5.191 5.191 0 0 1 1.317-.162 5.282 5.282 0 0 1 1.337.162 2.462 2.462 0 0 1 1.013.535 2.628 2.628 0 0 1 .694 1.07 5.249 5.249 0 0 1 .263 1.8v1.605a5.248 5.248 0 0 1-.263 1.8 2.629 2.629 0 0 1-.694 1.07 2.431 2.431 0 0 1-1.014.536 5.538 5.538 0 0 1-2.652-.005z" transform="translate(-2432.577 -1539.842)"/>
        <path id="패스_3510" data-name="패스 3510" class="cls-1" d="M2463.968 1597.858a6.232 6.232 0 0 0-2.2-1.1 9.932 9.932 0 0 0-5.158 0 6.227 6.227 0 0 0-2.2 1.1 5.273 5.273 0 0 0-1.5 1.923 6.557 6.557 0 0 0-.547 2.8v2.222a6.672 6.672 0 0 0 .547 2.826 5.21 5.21 0 0 0 1.495 1.923 6.073 6.073 0 0 0 2.193 1.079 10.324 10.324 0 0 0 5.2 0 6.081 6.081 0 0 0 2.193-1.079 5.22 5.22 0 0 0 1.5-1.923 6.68 6.68 0 0 0 .547-2.826v-2.222a6.565 6.565 0 0 0-.547-2.8 5.281 5.281 0 0 0-1.523-1.923zm-6.113 10.089a2.453 2.453 0 0 1-1.026-.542 2.737 2.737 0 0 1-.714-1.086 5.106 5.106 0 0 1-.276-1.816v-1.625a5.109 5.109 0 0 1 .276-1.816 2.75 2.75 0 0 1 .714-1.086 2.456 2.456 0 0 1 1.026-.542 5.267 5.267 0 0 1 1.332-.164 5.364 5.364 0 0 1 1.354.164 2.49 2.49 0 0 1 1.025.542 2.654 2.654 0 0 1 .7 1.083 5.293 5.293 0 0 1 .267 1.819v1.625a5.3 5.3 0 0 1-.267 1.82 2.654 2.654 0 0 1-.7 1.083 2.453 2.453 0 0 1-1.026.542 5.6 5.6 0 0 1-2.685-.001z" transform="translate(-2432.382 -1579.878)"/>
        <path id="패스_3511" data-name="패스 3511" class="cls-1" d="M2516.917 1607.858q-.658-1.3-1.342-2.631a3.973 3.973 0 0 0 1.6-1.3 3.584 3.584 0 0 0 .648-2.089v-.691a3.694 3.694 0 0 0-.358-1.615 3.608 3.608 0 0 0-1.05-1.287 5.158 5.158 0 0 0-1.672-.831 7.694 7.694 0 0 0-2.229-.3h-6.156v14.131h3.464v-5.4h2.483l2.561 5.4h3.779l-.243-.471q-.756-1.474-1.485-2.916zm-7.089-8.076h2.353a2.782 2.782 0 0 1 1.73.4 1.277 1.277 0 0 1 .475 1.038v.56a1.2 1.2 0 0 1-.5 1 3.4 3.4 0 0 1-1.942.4h-2.12z" transform="translate(-2470.6 -1580.371)"/>
        <path id="패스_3512" data-name="패스 3512" class="cls-1" d="M2607.243 1605.328h6.688v-2.608h-6.688v-2.958h7.133v-2.645H2603.8v14.131h10.723v-2.648h-7.281z" transform="translate(-2539.549 -1580.371)"/>
        <path id="패스_3513" data-name="패스 3513" class="cls-1" d="M2660.582 1610.778q-.762-1.474-1.491-2.92-.658-1.3-1.342-2.631a3.97 3.97 0 0 0 1.6-1.3 3.583 3.583 0 0 0 .648-2.089v-.691a3.687 3.687 0 0 0-.358-1.615 3.605 3.605 0 0 0-1.05-1.287 5.151 5.151 0 0 0-1.671-.831 7.7 7.7 0 0 0-2.229-.3h-6.155v14.131H2652v-5.4h2.483l2.561 5.4h3.779zm-8.581-11h2.353a2.783 2.783 0 0 1 1.73.4 1.277 1.277 0 0 1 .475 1.038v.56a1.2 1.2 0 0 1-.5 1 3.4 3.4 0 0 1-1.942.4H2652z" transform="translate(-2571.206 -1580.371)"/>
        <path id="패스_3514" data-name="패스 3514" class="cls-1" d="m2561.674 1603.409 6.255-6.291h-4.138l-5.461 5.6v-5.6h-3.464v14.131h3.464v-4.629l1-.963 4.457 5.593h4.366z" transform="translate(-2504.922 -1580.371)"/>
        <g id="그룹_2287" data-name="그룹 2287" transform="translate(0 18.084)">
            <path id="패스_3515" data-name="패스 3515" class="cls-1" d="M2431.718 1601.7h-2.805c-.34-.008-.636-.011-.843 0l-5.921 10.4 1.137 1.983a.8.8 0 0 0 1.387 0l4.952-8.72z" transform="translate(-2411.008 -1601.692)"/>
            <path id="패스_3516" data-name="패스 3516" class="cls-1" d="M2391.071 1614.082a.8.8 0 0 0 1.386 0l4.139-7.2.525-.913-.8-2.39a.8.8 0 0 0-1.45-.143l-3.106 5.436-4.074-7.185h-3.649z" transform="translate(-2384.042 -1601.692)"/>
        </g>
        <g id="그룹_2288" data-name="그룹 2288" transform="translate(4.203 34.972)">
            <path id="패스_3517" data-name="패스 3517" class="cls-1" d="M2398.416 1659.453h2.943l.755 5.45.482 3.795h.065c.225-1.27.466-2.556.708-3.795l1.222-5.45H2407l1.254 5.45c.241 1.222.45 2.508.691 3.795h.08c.145-1.286.306-2.556.45-3.795l.772-5.45h2.734l-2.074 11.962h-3.618l-1.077-5.209a34.348 34.348 0 0 1-.466-2.782h-.081c-.145.9-.289 1.865-.467 2.782l-1.045 5.209h-3.553z" transform="translate(-2398.416 -1659.453)"/>
            <path id="패스_3518" data-name="패스 3518" class="cls-1" d="M2453.8 1659.453h7.589v2.38h-4.711v2.219h4v2.412h-4V1669h4.888v2.412h-7.766z" transform="translate(-2437.607 -1659.453)"/>
            <path id="패스_3519" data-name="패스 3519" class="cls-1" d="M2488.45 1659.453h4.18c2.476 0 4.454.659 4.454 2.958a2.8 2.8 0 0 1-1.559 2.589v.064a2.714 2.714 0 0 1 2.122 2.813c0 2.444-2.074 3.538-4.679 3.538h-4.518zm4.068 4.743c1.222 0 1.769-.531 1.769-1.351 0-.852-.563-1.206-1.769-1.206h-1.19v2.557zm.241 5.016c1.383 0 2.09-.5 2.09-1.527 0-.981-.691-1.367-2.09-1.367h-1.431v2.894z" transform="translate(-2462.126 -1659.453)"/>
        </g>
    </g>
</svg>
