<?xml version="1.0" standalone="no"?>
<!DOCTYPE svg PUBLIC "-//W3C//DTD SVG 20010904//EN"
 "http://www.w3.org/TR/2001/REC-SVG-20010904/DTD/svg10.dtd">
<svg version="1.0" xmlns="http://www.w3.org/2000/svg"
 width="260.000000pt" height="260.000000pt" viewBox="0 0 260.000000 260.000000"
 preserveAspectRatio="xMidYMid meet">
<metadata>
Created by potrace 1.14, written by Peter Selinger 2001-2017
</metadata>
<g transform="translate(0.000000,260.000000) scale(0.100000,-0.100000)"
fill="#000000" stroke="none">
<path d="M1230 2569 c-490 -43 -939 -410 -1088 -889 -55 -175 -72 -393 -45
-575 27 -184 107 -385 216 -544 85 -124 286 -312 387 -363 14 -7 36 -20 50
-29 84 -54 320 -131 448 -145 120 -14 314 -6 421 16 371 75 687 309 870 642
17 31 31 60 31 65 0 4 -81 8 -180 8 l-181 -1 -42 -49 c-132 -158 -276 -258
-461 -320 -40 -14 -91 -27 -112 -31 -22 -3 -50 -7 -64 -10 -31 -5 -198 -6
-225 0 -11 2 -41 7 -67 10 -93 13 -236 70 -345 139 -309 195 -487 598 -424
957 14 78 51 200 61 200 6 0 44 -65 178 -300 10 -19 77 -136 147 -260 71 -124
153 -268 183 -321 53 -94 78 -119 121 -119 39 0 53 21 268 400 11 19 75 129
141 244 l120 209 -46 134 c-27 79 -52 138 -62 143 -39 21 -70 19 -100 -7 -17
-13 -30 -28 -30 -32 0 -4 -39 -75 -86 -157 -92 -158 -117 -202 -173 -301 -19
-35 -37 -63 -41 -63 -3 0 -17 21 -31 48 -14 26 -108 192 -209 370 l-183 323
24 25 c13 14 53 47 89 74 347 257 809 254 1158 -10 l80 -60 176 0 c97 0 176 4
176 9 0 18 -34 88 -66 136 -74 112 -205 219 -369 300 -234 116 -452 157 -715
134z"/>
<path d="M1959 1800 c-23 -41 -115 -203 -204 -360 -89 -157 -173 -305 -187
-330 -37 -67 -62 -109 -96 -166 l-30 -52 62 -108 c105 -185 146 -181 256 21
18 33 47 85 65 115 34 56 294 516 355 625 18 33 64 113 101 177 37 65 70 126
73 135 6 17 -6 18 -173 18 l-180 0 -42 -75z"/>
</g>
</svg>
