<svg id="admin-logo" xmlns="http://www.w3.org/2000/svg" width="257.001" height="123.932">
    <defs>
        <style>
            .cls-1{fill:#d47645}.cls-2{fill:#044777}.cls-3{fill:#464647}
        </style>
    </defs>
    <g id="그룹_2336" data-name="그룹 2336">
        <g id="그룹_2332" data-name="그룹 2332" transform="translate(82.528)">
            <path id="패스_3616" data-name="패스 3616" class="cls-1" d="M-415.751-399.049h-9.13c-1.105-.025-2.072-.036-2.744 0l-18.21 32.066 3.7 6.456a2.6 2.6 0 0 0 4.514-.009l16.117-28.381z" transform="translate(490.151 421.896)"/>
            <path id="패스_3617" data-name="패스 3617" class="cls-2" d="m-466.947-385.349-.438.606a31.281 31.281 0 0 1-25.293 12.959 31.212 31.212 0 0 1-31.176-31.177 31.283 31.283 0 0 1 2.406-12.01l17.97 31.643a2.6 2.6 0 0 0 4.512.013l13.474-23.428 1.71-2.972-2.6-7.779a2.6 2.6 0 0 0-4.72-.464l-10.113 17.693-13.849-24.386a31.243 31.243 0 0 1 22.392-9.486 31.129 31.129 0 0 1 16.274 4.618c.878.524 1.734 1.146 2.561 1.756.271.206.542.412.808.625.6.474 1.187.965 1.754 1.485h11.81c-2.45-7.791-10.253-12.939-17.445-15.905a41.637 41.637 0 0 0-8.871-2.55 41.034 41.034 0 0 0-6.891-.583 41.776 41.776 0 0 0-41.73 41.729 41.777 41.777 0 0 0 41.73 41.73 41.736 41.736 0 0 0 36.741-21.962l1.165-2.156z" transform="translate(534.407 444.69)"/>
        </g>
        <g id="그룹_2335" data-name="그룹 2335" transform="translate(0 99.38)">
            <g id="그룹_2334" data-name="그룹 2334">
                <path id="패스_3618" data-name="패스 3618" class="cls-2" d="M-681.373-228.584a7.484 7.484 0 0 1-3.137 1.73 10.063 10.063 0 0 1-5.584.138 4.528 4.528 0 0 1-1.705-1.009 5.064 5.064 0 0 1-1.2-1.851 7.843 7.843 0 0 1-.464-2.872v-2.334a9.1 9.1 0 0 1 .5-3.283 5.19 5.19 0 0 1 1.251-1.94 4 4 0 0 1 1.694-.94 10.774 10.774 0 0 1 5.188.069 7.971 7.971 0 0 1 2.863 1.417l.531.393 3.21-4.022-.467-.33a13.612 13.612 0 0 0-4.267-2.053 19.221 19.221 0 0 0-4.993-.592 15.748 15.748 0 0 0-4.4.6 10.1 10.1 0 0 0-3.647 1.9 9.046 9.046 0 0 0-2.46 3.259 11.087 11.087 0 0 0-.886 4.608v4.068a10.594 10.594 0 0 0 .907 4.57 8.973 8.973 0 0 0 2.462 3.16 9.971 9.971 0 0 0 3.6 1.824 15.608 15.608 0 0 0 4.213.562c.733 0 1.521-.033 2.343-.1a14.549 14.549 0 0 0 2.593-.447 16.368 16.368 0 0 0 2.631-.955 10.551 10.551 0 0 0 2.568-1.693l.376-.332-3.173-4.035z" transform="translate(699.35 246.064)"/>
                <path id="패스_3619" data-name="패스 3619" class="cls-3" d="M-632.034-243.633a10.522 10.522 0 0 0-3.717-1.851 16.779 16.779 0 0 0-8.709 0 10.52 10.52 0 0 0-3.716 1.851 8.9 8.9 0 0 0-2.541 3.247 11.08 11.08 0 0 0-.924 4.724v3.753a11.266 11.266 0 0 0 .923 4.77 8.808 8.808 0 0 0 2.523 3.248 10.266 10.266 0 0 0 3.7 1.821 16.837 16.837 0 0 0 4.385.56 16.838 16.838 0 0 0 4.385-.56 10.282 10.282 0 0 0 3.7-1.821 8.814 8.814 0 0 0 2.524-3.248 11.273 11.273 0 0 0 .923-4.77v-3.753a11.08 11.08 0 0 0-.924-4.724 8.913 8.913 0 0 0-2.532-3.247zm-10.32 17.034a4.139 4.139 0 0 1-1.732-.915 4.627 4.627 0 0 1-1.206-1.834 8.631 8.631 0 0 1-.466-3.067v-2.743a8.639 8.639 0 0 1 .466-3.067 4.643 4.643 0 0 1 1.206-1.834 4.141 4.141 0 0 1 1.732-.915 8.876 8.876 0 0 1 2.249-.276 9.035 9.035 0 0 1 2.285.276 4.2 4.2 0 0 1 1.732.915 4.492 4.492 0 0 1 1.185 1.828 8.954 8.954 0 0 1 .451 3.073v2.743a8.955 8.955 0 0 1-.45 3.072 4.491 4.491 0 0 1-1.186 1.828 4.15 4.15 0 0 1-1.733.916 9.458 9.458 0 0 1-4.534-.001z" transform="translate(675.512 246.061)"/>
                <path id="패스_3620" data-name="패스 3620" class="cls-3" d="M-508.334-243.633a10.517 10.517 0 0 0-3.717-1.851 16.778 16.778 0 0 0-8.709 0 10.527 10.527 0 0 0-3.717 1.851 8.906 8.906 0 0 0-2.54 3.247 11.081 11.081 0 0 0-.924 4.724v3.753a11.274 11.274 0 0 0 .923 4.77 8.813 8.813 0 0 0 2.523 3.248 10.273 10.273 0 0 0 3.7 1.821 16.838 16.838 0 0 0 4.385.56 16.837 16.837 0 0 0 4.385-.56 10.281 10.281 0 0 0 3.7-1.821 8.808 8.808 0 0 0 2.524-3.248 11.266 11.266 0 0 0 .923-4.77v-3.753a11.08 11.08 0 0 0-.924-4.724 8.915 8.915 0 0 0-2.532-3.247zm-10.32 17.034a4.144 4.144 0 0 1-1.732-.915 4.63 4.63 0 0 1-1.206-1.834 8.619 8.619 0 0 1-.466-3.067v-2.743a8.627 8.627 0 0 1 .466-3.067 4.646 4.646 0 0 1 1.206-1.834 4.146 4.146 0 0 1 1.732-.915 8.875 8.875 0 0 1 2.249-.276 9.034 9.034 0 0 1 2.285.276 4.2 4.2 0 0 1 1.732.915 4.488 4.488 0 0 1 1.186 1.828 8.957 8.957 0 0 1 .45 3.073v2.743a8.957 8.957 0 0 1-.45 3.072 4.485 4.485 0 0 1-1.186 1.828 4.145 4.145 0 0 1-1.732.916 9.458 9.458 0 0 1-4.534-.001z" transform="translate(613.704 246.061)"/>
                <path id="패스_3621" data-name="패스 3621" class="cls-2" d="M-456.131-227.239q-1.11-2.2-2.265-4.442a6.71 6.71 0 0 0 2.708-2.193 6.049 6.049 0 0 0 1.095-3.526v-1.167a6.226 6.226 0 0 0-.6-2.726 6.083 6.083 0 0 0-1.772-2.173 8.7 8.7 0 0 0-2.822-1.4 12.978 12.978 0 0 0-3.763-.5h-10.393v23.858h5.848v-9.113h4.193l4.324 9.113h6.38l-.41-.795q-1.292-2.497-2.523-4.936zm-11.969-13.635h3.973a4.692 4.692 0 0 1 2.921.682 2.154 2.154 0 0 1 .8 1.752v.946a2.028 2.028 0 0 1-.839 1.691 5.746 5.746 0 0 1-3.278.679h-3.58z" transform="translate(586.726 245.718)"/>
                <path id="패스_3622" data-name="패스 3622" class="cls-2" d="M-372-231.509h11.293v-4.4H-372v-4.994h12.043v-4.466h-17.854v23.858h18.1v-4.466H-372z" transform="translate(538.692 245.718)"/>
                <path id="패스_3623" data-name="패스 3623" class="cls-2" d="M-313.343-222.308q-1.286-2.488-2.518-4.931-1.111-2.2-2.265-4.442a6.71 6.71 0 0 0 2.708-2.193 6.049 6.049 0 0 0 1.095-3.526v-1.167a6.233 6.233 0 0 0-.6-2.726 6.089 6.089 0 0 0-1.772-2.173 8.7 8.7 0 0 0-2.822-1.4 12.981 12.981 0 0 0-3.763-.5h-10.393v23.858h5.847v-9.113h4.193l4.324 9.113h6.38zm-14.487-18.566h3.973a4.694 4.694 0 0 1 2.921.682 2.155 2.155 0 0 1 .8 1.752v.946a2.028 2.028 0 0 1-.839 1.691 5.746 5.746 0 0 1-3.278.679h-3.58z" transform="translate(516.638 245.718)"/>
                <path id="패스_3624" data-name="패스 3624" class="cls-2" d="m-414.6-234.75 10.561-10.621h-6.986l-9.22 9.453v-9.453h-5.848v23.858h5.848v-7.816l1.691-1.626 7.525 9.443h7.373z" transform="translate(562.815 245.718)"/>
                <g id="그룹_2333" data-name="그룹 2333" transform="translate(47.724 1.679)">
                    <path id="패스_3625" data-name="패스 3625" class="cls-1" d="M-547.911-242.7h-4.939c-.6-.014-1.121-.02-1.484 0l-10.425 18.313 2 3.492a1.406 1.406 0 0 0 2.442-.005l8.719-15.353z" transform="translate(584.376 242.709)"/>
                    <path id="패스_3626" data-name="패스 3626" class="cls-2" d="M-591.592-220.895a1.406 1.406 0 0 0 2.441.007l7.288-12.673.925-1.608-1.409-4.208a1.405 1.405 0 0 0-2.553-.251l-5.471 9.571-7.172-12.652h-6.425z" transform="translate(603.967 242.709)"/>
                </g>
            </g>
        </g>
    </g>
    <g id="그룹_2337" data-name="그룹 2337" transform="translate(207.266 106.835)">
        <path id="패스_3627" data-name="패스 3627" class="cls-1" d="M-285.1-231.166h4.12l1.058 7.633.675 5.313h.09c.316-1.779.653-3.58.991-5.313l1.711-7.633h3.377l1.756 7.633c.338 1.711.63 3.512.968 5.313h.112c.2-1.8.428-3.58.631-5.313l1.08-7.633h3.828l-2.9 16.75h-5.066l-1.509-7.294c-.27-1.283-.5-2.634-.653-3.9h-.113c-.2 1.261-.405 2.612-.653 3.9l-1.464 7.294h-4.976z" transform="translate(285.102 231.166)"/>
        <path id="패스_3628" data-name="패스 3628" class="cls-1" d="M-239.788-231.166h10.627v3.332h-6.6v3.107h5.606v3.377h-5.606v3.557h6.845v3.377h-10.875z" transform="translate(262.46 231.166)"/>
        <path id="패스_3629" data-name="패스 3629" class="cls-1" d="M-211.438-231.166h5.854c3.467 0 6.236.923 6.236 4.142a3.912 3.912 0 0 1-2.184 3.625v.09a3.8 3.8 0 0 1 2.972 3.94c0 3.422-2.9 4.953-6.552 4.953h-6.326zm5.7 6.642c1.711 0 2.476-.743 2.476-1.891 0-1.194-.788-1.689-2.476-1.689h-1.667v3.579zm.337 7.025c1.936 0 2.927-.7 2.927-2.139 0-1.373-.968-1.914-2.927-1.914h-2v4.053z" transform="translate(248.295 231.166)"/>
    </g>
</svg>
