<svg id="LOGO3" xmlns="http://www.w3.org/2000/svg" width="190" height="25.051">
    <defs>
        <style>
            .cls-1{fill:#fff}
        </style>
    </defs>
    <g id="그룹_2274" data-name="그룹 2274">
        <path id="패스_3478" data-name="패스 3478" class="cls-1" d="M1281.578 982.719h-2.741a12.37 12.37 0 0 0-.823 0l-5.466 9.625 1.111 1.937a.78.78 0 0 0 1.355 0l4.838-8.519z" transform="translate(-1259.246 -975.861)"/>
        <path id="패스_3479" data-name="패스 3479" class="cls-1" d="m1243.852 975.315-.131.182a9.357 9.357 0 0 1-16.227-9.073l5.394 9.5a.78.78 0 0 0 1.354 0l4.044-7.032.513-.892-.782-2.335a.78.78 0 0 0-1.417-.139l-3.035 5.31-4.157-7.32a9.333 9.333 0 0 1 11.606-1.461c.264.157.52.344.769.527.081.062.163.124.242.188.18.142.357.29.526.446h3.545c-.735-2.338-3.077-3.884-5.236-4.774a12.5 12.5 0 0 0-2.663-.765 12.326 12.326 0 0 0-2.068-.175 12.525 12.525 0 1 0 11.028 18.459l.35-.647z" transform="translate(-1223.603 -957.503)"/>
    </g>
    <g id="그룹_2277" data-name="그룹 2277" transform="translate(26.453 4.791)">
        <g id="그룹_2276" data-name="그룹 2276">
            <path id="패스_3480" data-name="패스 3480" class="cls-1" d="M1332.265 986.146a4.717 4.717 0 0 1-1.977 1.09 6.335 6.335 0 0 1-3.518.087 2.846 2.846 0 0 1-1.074-.636 3.189 3.189 0 0 1-.758-1.166 4.943 4.943 0 0 1-.293-1.81v-1.47a5.732 5.732 0 0 1 .316-2.069 3.272 3.272 0 0 1 .788-1.222 2.516 2.516 0 0 1 1.067-.592 6.784 6.784 0 0 1 3.268.043 5.017 5.017 0 0 1 1.8.892l.334.248 2.023-2.534-.295-.208a8.583 8.583 0 0 0-2.688-1.294 12.109 12.109 0 0 0-3.146-.373 9.915 9.915 0 0 0-2.771.375 6.364 6.364 0 0 0-2.3 1.2 5.7 5.7 0 0 0-1.55 2.053 6.984 6.984 0 0 0-.558 2.9v2.563a6.676 6.676 0 0 0 .572 2.879 5.655 5.655 0 0 0 1.552 1.991 6.278 6.278 0 0 0 2.266 1.149 9.836 9.836 0 0 0 2.654.354c.461 0 .958-.02 1.476-.061a9.157 9.157 0 0 0 1.634-.282 10.253 10.253 0 0 0 1.658-.6 6.666 6.666 0 0 0 1.618-1.067l.237-.209-2-2.542z" transform="translate(-1320.938 -975.132)"/>
            <path id="패스_3481" data-name="패스 3481" class="cls-1" d="M1388.633 976.666a6.626 6.626 0 0 0-2.342-1.166 10.565 10.565 0 0 0-5.487 0 6.625 6.625 0 0 0-2.342 1.166 5.614 5.614 0 0 0-1.6 2.046 6.982 6.982 0 0 0-.582 2.977v2.364a7.1 7.1 0 0 0 .582 3.006 5.545 5.545 0 0 0 1.59 2.046 6.464 6.464 0 0 0 2.333 1.147 10.98 10.98 0 0 0 5.527 0 6.472 6.472 0 0 0 2.333-1.147 5.553 5.553 0 0 0 1.59-2.046 7.1 7.1 0 0 0 .582-3.006v-2.364a6.981 6.981 0 0 0-.582-2.977 5.62 5.62 0 0 0-1.602-2.046zm-6.5 10.733a2.606 2.606 0 0 1-1.091-.576 2.916 2.916 0 0 1-.76-1.155 5.431 5.431 0 0 1-.294-1.932v-1.728a5.434 5.434 0 0 1 .294-1.932 2.927 2.927 0 0 1 .76-1.156 2.61 2.61 0 0 1 1.091-.576 5.591 5.591 0 0 1 1.417-.174 5.69 5.69 0 0 1 1.44.174 2.647 2.647 0 0 1 1.091.576 2.825 2.825 0 0 1 .747 1.152 5.632 5.632 0 0 1 .284 1.936v1.728a5.639 5.639 0 0 1-.283 1.936 2.83 2.83 0 0 1-.747 1.152 2.611 2.611 0 0 1-1.092.577 5.957 5.957 0 0 1-2.86-.001z" transform="translate(-1361.239 -975.136)"/>
            <path id="패스_3482" data-name="패스 3482" class="cls-1" d="M1532.124 976.666a6.623 6.623 0 0 0-2.342-1.166 10.566 10.566 0 0 0-5.487 0 6.624 6.624 0 0 0-2.342 1.166 5.614 5.614 0 0 0-1.6 2.046 6.981 6.981 0 0 0-.582 2.977v2.364a7.1 7.1 0 0 0 .582 3.006 5.544 5.544 0 0 0 1.59 2.046 6.462 6.462 0 0 0 2.333 1.147 10.98 10.98 0 0 0 5.526 0 6.471 6.471 0 0 0 2.333-1.147 5.551 5.551 0 0 0 1.59-2.046 7.1 7.1 0 0 0 .582-3.006v-2.364a6.981 6.981 0 0 0-.582-2.977 5.622 5.622 0 0 0-1.601-2.046zm-6.5 10.733a2.607 2.607 0 0 1-1.091-.576 2.918 2.918 0 0 1-.76-1.155 5.436 5.436 0 0 1-.294-1.932v-1.728a5.439 5.439 0 0 1 .294-1.932 2.927 2.927 0 0 1 .76-1.156 2.611 2.611 0 0 1 1.091-.576 5.592 5.592 0 0 1 1.417-.174 5.689 5.689 0 0 1 1.439.174 2.648 2.648 0 0 1 1.091.576 2.827 2.827 0 0 1 .747 1.152 5.641 5.641 0 0 1 .284 1.936v1.728a5.642 5.642 0 0 1-.284 1.936 2.826 2.826 0 0 1-.747 1.152 2.613 2.613 0 0 1-1.091.577 5.958 5.958 0 0 1-2.859-.001z" transform="translate(-1465.733 -975.136)"/>
            <path id="패스_3483" data-name="패스 3483" class="cls-1" d="M1593.626 987.36q-.7-1.387-1.427-2.8a4.229 4.229 0 0 0 1.707-1.382 3.811 3.811 0 0 0 .69-2.222v-.735a3.928 3.928 0 0 0-.381-1.718 3.833 3.833 0 0 0-1.117-1.369 5.48 5.48 0 0 0-1.778-.883 8.175 8.175 0 0 0-2.371-.317h-6.549v15.032h3.684v-5.742h2.642l2.724 5.742h4.02l-.258-.5q-.812-1.566-1.586-3.106zm-7.542-8.591h2.5a2.958 2.958 0 0 1 1.841.429 1.358 1.358 0 0 1 .505 1.1v.6a1.277 1.277 0 0 1-.528 1.065 3.621 3.621 0 0 1-2.065.428h-2.256z" transform="translate(-1511.342 -975.717)"/>
            <path id="패스_3484" data-name="패스 3484" class="cls-1" d="M1697.573 984.669h7.115V981.9h-7.115v-3.146h7.588v-2.814h-11.249v15.032h11.407v-2.814h-7.745z" transform="translate(-1592.548 -975.717)"/>
            <path id="패스_3485" data-name="패스 3485" class="cls-1" d="M1757.922 990.467q-.81-1.568-1.586-3.107-.7-1.387-1.427-2.8a4.226 4.226 0 0 0 1.706-1.382 3.81 3.81 0 0 0 .69-2.222v-.735a3.925 3.925 0 0 0-.381-1.718 3.832 3.832 0 0 0-1.117-1.369 5.481 5.481 0 0 0-1.778-.883 8.177 8.177 0 0 0-2.371-.317h-6.548v15.032h3.684v-5.742h2.642l2.724 5.742h4.02zm-9.128-11.7h2.5a2.959 2.959 0 0 1 1.841.429 1.358 1.358 0 0 1 .505 1.1v.6a1.277 1.277 0 0 1-.528 1.065 3.62 3.62 0 0 1-2.065.428h-2.256z" transform="translate(-1629.833 -975.717)"/>
            <path id="패스_3486" data-name="패스 3486" class="cls-1" d="m1645.15 982.627 6.654-6.692h-4.4l-5.809 5.956v-5.956h-3.684v15.032h3.684v-4.925l1.066-1.025 4.742 5.95h4.645z" transform="translate(-1551.765 -975.717)"/>
            <g id="그룹_2275" data-name="그룹 2275" transform="translate(30.07 1.058)">
                <path id="패스_3487" data-name="패스 3487" class="cls-1" d="M1487.676 979.032h-3.112a14.369 14.369 0 0 0-.935 0l-6.568 11.538 1.261 2.2a.886.886 0 0 0 1.539 0l5.494-9.674z" transform="translate(-1464.701 -979.024)"/>
                <path id="패스_3488" data-name="패스 3488" class="cls-1" d="M1439.378 992.769a.886.886 0 0 0 1.538 0l4.593-7.985.582-1.013-.887-2.651a.886.886 0 0 0-1.609-.158l-3.447 6.03-4.519-7.971h-4.048z" transform="translate(-1431.581 -979.024)"/>
            </g>
        </g>
    </g>
    <g id="그룹_2278" data-name="그룹 2278" transform="translate(156.983 8.922)">
        <path id="패스_3489" data-name="패스 3489" class="cls-1" d="M1801.233 990.333h2.735l.7 5.066.448 3.527h.06c.209-1.181.433-2.376.658-3.527l1.136-5.066h2.242l1.166 5.066c.224 1.136.418 2.332.642 3.527h.075c.135-1.2.284-2.376.418-3.527l.718-5.066h2.541l-1.928 11.119h-3.363l-1-4.842a31.63 31.63 0 0 1-.433-2.586h-.075c-.135.837-.269 1.734-.433 2.586l-.971 4.842h-3.3z" transform="translate(-1801.233 -990.333)"/>
        <path id="패스_3490" data-name="패스 3490" class="cls-1" d="M1856.618 990.333h7.054v2.212h-4.379v2.063h3.721v2.242h-3.721v2.361h4.543v2.242h-7.219z" transform="translate(-1841.566 -990.333)"/>
        <path id="패스_3491" data-name="패스 3491" class="cls-1" d="M1891.267 990.333h3.886c2.3 0 4.14.613 4.14 2.75a2.6 2.6 0 0 1-1.45 2.406v.06a2.522 2.522 0 0 1 1.973 2.615c0 2.272-1.928 3.288-4.349 3.288h-4.2zm3.781 4.409c1.136 0 1.644-.493 1.644-1.255 0-.792-.523-1.121-1.644-1.121h-1.106v2.376zm.224 4.663c1.285 0 1.943-.463 1.943-1.42 0-.912-.643-1.27-1.943-1.27h-1.33v2.69z" transform="translate(-1866.798 -990.333)"/>
    </g>
</svg>
